<mxfile host="Electron" modified="2023-12-07T01:36:21.834Z" agent="Mozilla/5.0 (Windows NT 10.0; Win64; x64) AppleWebKit/537.36 (KHTML, like Gecko) draw.io/22.1.2 Chrome/114.0.5735.289 Electron/25.9.4 Safari/537.36" etag="WIefcELvDWl-lZg4GZTb" version="22.1.2" type="device">
  <diagram name="Page-1" id="AOhqZcJ9BbzlQePpoyiB">
    <mxGraphModel dx="1418" dy="828" grid="1" gridSize="10" guides="1" tooltips="1" connect="1" arrows="1" fold="1" page="1" pageScale="1" pageWidth="850" pageHeight="1100" math="0" shadow="0">
      <root>
        <mxCell id="0" />
        <mxCell id="1" parent="0" />
        <mxCell id="gJ090KC5xR00DcdVzrJq-5" value="Type_DIM" style="swimlane;whiteSpace=wrap;html=1;" parent="1" vertex="1">
          <mxGeometry x="20" y="390" width="200" height="110" as="geometry" />
        </mxCell>
        <mxCell id="xx2WODDOaaM5Vq0Ma5h1-22" value="TypeID(PK)" style="text;html=1;align=center;verticalAlign=middle;resizable=0;points=[];autosize=1;strokeColor=none;fillColor=none;" parent="gJ090KC5xR00DcdVzrJq-5" vertex="1">
          <mxGeometry x="-3" y="36" width="90" height="30" as="geometry" />
        </mxCell>
        <mxCell id="7uYNugSpsT-0Em7vb6zb-60" value="Type" style="text;html=1;align=center;verticalAlign=middle;resizable=0;points=[];autosize=1;strokeColor=none;fillColor=none;" parent="gJ090KC5xR00DcdVzrJq-5" vertex="1">
          <mxGeometry x="-1" y="66" width="50" height="30" as="geometry" />
        </mxCell>
        <mxCell id="7uYNugSpsT-0Em7vb6zb-94" style="edgeStyle=orthogonalEdgeStyle;rounded=0;orthogonalLoop=1;jettySize=auto;html=1;exitX=0.75;exitY=0;exitDx=0;exitDy=0;" parent="1" source="gJ090KC5xR00DcdVzrJq-6" edge="1">
          <mxGeometry relative="1" as="geometry">
            <mxPoint x="450" y="420" as="targetPoint" />
          </mxGeometry>
        </mxCell>
        <mxCell id="gJ090KC5xR00DcdVzrJq-6" value="PetFinder_FACT" style="swimlane;whiteSpace=wrap;html=1;" parent="1" vertex="1">
          <mxGeometry x="310" y="390" width="200" height="520" as="geometry" />
        </mxCell>
        <mxCell id="gJ090KC5xR00DcdVzrJq-9" value="PetID(PK)" style="text;html=1;align=center;verticalAlign=middle;resizable=0;points=[];autosize=1;strokeColor=none;fillColor=none;" parent="gJ090KC5xR00DcdVzrJq-6" vertex="1">
          <mxGeometry y="28" width="80" height="30" as="geometry" />
        </mxCell>
        <mxCell id="gJ090KC5xR00DcdVzrJq-10" value="TypeID(FK)" style="text;html=1;align=center;verticalAlign=middle;resizable=0;points=[];autosize=1;strokeColor=none;fillColor=none;" parent="gJ090KC5xR00DcdVzrJq-6" vertex="1">
          <mxGeometry x="6" y="118" width="80" height="30" as="geometry" />
        </mxCell>
        <mxCell id="gJ090KC5xR00DcdVzrJq-11" value="Age" style="text;html=1;align=center;verticalAlign=middle;resizable=0;points=[];autosize=1;strokeColor=none;fillColor=none;" parent="gJ090KC5xR00DcdVzrJq-6" vertex="1">
          <mxGeometry x="5" y="50" width="40" height="30" as="geometry" />
        </mxCell>
        <mxCell id="xx2WODDOaaM5Vq0Ma5h1-3" value="GenderID(FK)" style="text;html=1;align=center;verticalAlign=middle;resizable=0;points=[];autosize=1;strokeColor=none;fillColor=none;" parent="gJ090KC5xR00DcdVzrJq-6" vertex="1">
          <mxGeometry x="2" y="195" width="100" height="30" as="geometry" />
        </mxCell>
        <mxCell id="xx2WODDOaaM5Vq0Ma5h1-4" value="ColorID1(FK)" style="text;html=1;align=center;verticalAlign=middle;resizable=0;points=[];autosize=1;strokeColor=none;fillColor=none;" parent="gJ090KC5xR00DcdVzrJq-6" vertex="1">
          <mxGeometry x="5" y="220" width="90" height="30" as="geometry" />
        </mxCell>
        <mxCell id="xx2WODDOaaM5Vq0Ma5h1-5" value="ColorID2(FK)" style="text;html=1;align=center;verticalAlign=middle;resizable=0;points=[];autosize=1;strokeColor=none;fillColor=none;" parent="gJ090KC5xR00DcdVzrJq-6" vertex="1">
          <mxGeometry x="5" y="246" width="90" height="30" as="geometry" />
        </mxCell>
        <mxCell id="xx2WODDOaaM5Vq0Ma5h1-6" value="ColorID3(FK)" style="text;html=1;align=center;verticalAlign=middle;resizable=0;points=[];autosize=1;strokeColor=none;fillColor=none;" parent="gJ090KC5xR00DcdVzrJq-6" vertex="1">
          <mxGeometry x="4" y="271" width="90" height="30" as="geometry" />
        </mxCell>
        <mxCell id="xx2WODDOaaM5Vq0Ma5h1-7" value="MaturitySizeID(FK)" style="text;html=1;align=center;verticalAlign=middle;resizable=0;points=[];autosize=1;strokeColor=none;fillColor=none;" parent="gJ090KC5xR00DcdVzrJq-6" vertex="1">
          <mxGeometry x="5" y="296" width="120" height="30" as="geometry" />
        </mxCell>
        <mxCell id="xx2WODDOaaM5Vq0Ma5h1-8" value="FurLengthID(FK)" style="text;html=1;align=center;verticalAlign=middle;resizable=0;points=[];autosize=1;strokeColor=none;fillColor=none;" parent="gJ090KC5xR00DcdVzrJq-6" vertex="1">
          <mxGeometry x="4" y="321" width="110" height="30" as="geometry" />
        </mxCell>
        <mxCell id="xx2WODDOaaM5Vq0Ma5h1-9" value="VaccinatedID(FK)" style="text;html=1;align=center;verticalAlign=middle;resizable=0;points=[];autosize=1;strokeColor=none;fillColor=none;" parent="gJ090KC5xR00DcdVzrJq-6" vertex="1">
          <mxGeometry y="346" width="120" height="30" as="geometry" />
        </mxCell>
        <mxCell id="xx2WODDOaaM5Vq0Ma5h1-10" value="DewormedID(FK)" style="text;html=1;align=center;verticalAlign=middle;resizable=0;points=[];autosize=1;strokeColor=none;fillColor=none;" parent="gJ090KC5xR00DcdVzrJq-6" vertex="1">
          <mxGeometry x="2" y="371" width="120" height="30" as="geometry" />
        </mxCell>
        <mxCell id="xx2WODDOaaM5Vq0Ma5h1-11" value="SterilizedID(FK)" style="text;html=1;align=center;verticalAlign=middle;resizable=0;points=[];autosize=1;strokeColor=none;fillColor=none;" parent="gJ090KC5xR00DcdVzrJq-6" vertex="1">
          <mxGeometry x="2" y="396" width="110" height="30" as="geometry" />
        </mxCell>
        <mxCell id="xx2WODDOaaM5Vq0Ma5h1-12" value="HealthID(FK)" style="text;html=1;align=center;verticalAlign=middle;resizable=0;points=[];autosize=1;strokeColor=none;fillColor=none;" parent="gJ090KC5xR00DcdVzrJq-6" vertex="1">
          <mxGeometry x="6" y="422" width="90" height="30" as="geometry" />
        </mxCell>
        <mxCell id="xx2WODDOaaM5Vq0Ma5h1-13" value="BreedID1(FK)" style="text;html=1;align=center;verticalAlign=middle;resizable=0;points=[];autosize=1;strokeColor=none;fillColor=none;" parent="gJ090KC5xR00DcdVzrJq-6" vertex="1">
          <mxGeometry x="2" y="141" width="100" height="30" as="geometry" />
        </mxCell>
        <mxCell id="xx2WODDOaaM5Vq0Ma5h1-14" value="BreedID2(FK)" style="text;html=1;align=center;verticalAlign=middle;resizable=0;points=[];autosize=1;strokeColor=none;fillColor=none;" parent="gJ090KC5xR00DcdVzrJq-6" vertex="1">
          <mxGeometry x="3" y="168" width="100" height="30" as="geometry" />
        </mxCell>
        <mxCell id="xx2WODDOaaM5Vq0Ma5h1-15" value="Fee" style="text;html=1;align=center;verticalAlign=middle;resizable=0;points=[];autosize=1;strokeColor=none;fillColor=none;" parent="gJ090KC5xR00DcdVzrJq-6" vertex="1">
          <mxGeometry x="4" y="73" width="40" height="30" as="geometry" />
        </mxCell>
        <mxCell id="xx2WODDOaaM5Vq0Ma5h1-16" value="StateID(FK)" style="text;html=1;align=center;verticalAlign=middle;resizable=0;points=[];autosize=1;strokeColor=none;fillColor=none;" parent="gJ090KC5xR00DcdVzrJq-6" vertex="1">
          <mxGeometry x="2" y="449" width="90" height="30" as="geometry" />
        </mxCell>
        <mxCell id="7uYNugSpsT-0Em7vb6zb-86" value="Quantity" style="text;html=1;align=center;verticalAlign=middle;resizable=0;points=[];autosize=1;strokeColor=none;fillColor=none;" parent="gJ090KC5xR00DcdVzrJq-6" vertex="1">
          <mxGeometry x="-1" y="95" width="70" height="30" as="geometry" />
        </mxCell>
        <mxCell id="7uYNugSpsT-0Em7vb6zb-87" value="RescuerID" style="text;html=1;align=center;verticalAlign=middle;resizable=0;points=[];autosize=1;strokeColor=none;fillColor=none;" parent="gJ090KC5xR00DcdVzrJq-6" vertex="1">
          <mxGeometry x="6" y="479" width="80" height="30" as="geometry" />
        </mxCell>
        <mxCell id="xx2WODDOaaM5Vq0Ma5h1-30" value="&lt;font color=&quot;#333333&quot; style=&quot;font-size: 20px;&quot;&gt;&lt;b style=&quot;&quot;&gt;Data&lt;br&gt;WareHouse&lt;/b&gt;&lt;/font&gt;" style="shape=cylinder3;whiteSpace=wrap;html=1;boundedLbl=1;backgroundOutline=1;size=15;fillColor=#2bbfae;" parent="1" vertex="1">
          <mxGeometry x="390" y="40" width="180" height="300" as="geometry" />
        </mxCell>
        <mxCell id="xx2WODDOaaM5Vq0Ma5h1-31" value="&lt;b&gt;PetFinder&lt;/b&gt;" style="rounded=1;whiteSpace=wrap;html=1;fillColor=#d5e8d4;strokeColor=#82b366;" parent="1" vertex="1">
          <mxGeometry x="110" y="160" width="120" height="60" as="geometry" />
        </mxCell>
        <mxCell id="xx2WODDOaaM5Vq0Ma5h1-32" value="" style="endArrow=classic;html=1;rounded=0;exitX=1;exitY=0.5;exitDx=0;exitDy=0;entryX=0;entryY=0.5;entryDx=0;entryDy=0;entryPerimeter=0;" parent="1" source="xx2WODDOaaM5Vq0Ma5h1-31" target="xx2WODDOaaM5Vq0Ma5h1-30" edge="1">
          <mxGeometry width="50" height="50" relative="1" as="geometry">
            <mxPoint x="400" y="350" as="sourcePoint" />
            <mxPoint x="450" y="300" as="targetPoint" />
          </mxGeometry>
        </mxCell>
        <mxCell id="7uYNugSpsT-0Em7vb6zb-1" value="Breed_DIM" style="swimlane;whiteSpace=wrap;html=1;" parent="1" vertex="1">
          <mxGeometry x="20" y="510" width="200" height="105" as="geometry" />
        </mxCell>
        <mxCell id="7uYNugSpsT-0Em7vb6zb-2" value="BreedID(PK)" style="text;html=1;align=center;verticalAlign=middle;resizable=0;points=[];autosize=1;strokeColor=none;fillColor=none;" parent="7uYNugSpsT-0Em7vb6zb-1" vertex="1">
          <mxGeometry x="1.5" y="36" width="90" height="30" as="geometry" />
        </mxCell>
        <mxCell id="7uYNugSpsT-0Em7vb6zb-3" value="Breed" style="text;html=1;align=center;verticalAlign=middle;resizable=0;points=[];autosize=1;strokeColor=none;fillColor=none;" parent="7uYNugSpsT-0Em7vb6zb-1" vertex="1">
          <mxGeometry y="66" width="60" height="30" as="geometry" />
        </mxCell>
        <mxCell id="7uYNugSpsT-0Em7vb6zb-47" value="Color_DIM" style="swimlane;whiteSpace=wrap;html=1;startSize=23;" parent="1" vertex="1">
          <mxGeometry x="20" y="630" width="200" height="110" as="geometry" />
        </mxCell>
        <mxCell id="7uYNugSpsT-0Em7vb6zb-48" value="ColorID(PK)" style="text;html=1;align=center;verticalAlign=middle;resizable=0;points=[];autosize=1;strokeColor=none;fillColor=none;" parent="7uYNugSpsT-0Em7vb6zb-47" vertex="1">
          <mxGeometry x="1" y="36" width="90" height="30" as="geometry" />
        </mxCell>
        <mxCell id="7uYNugSpsT-0Em7vb6zb-49" value="Color" style="text;html=1;align=center;verticalAlign=middle;resizable=0;points=[];autosize=1;strokeColor=none;fillColor=none;" parent="7uYNugSpsT-0Em7vb6zb-47" vertex="1">
          <mxGeometry x="3" y="66" width="50" height="30" as="geometry" />
        </mxCell>
        <mxCell id="7uYNugSpsT-0Em7vb6zb-61" value="MaturitySize_DIM" style="swimlane;whiteSpace=wrap;html=1;startSize=23;" parent="1" vertex="1">
          <mxGeometry x="20" y="750" width="200" height="110" as="geometry" />
        </mxCell>
        <mxCell id="7uYNugSpsT-0Em7vb6zb-62" value="MaturitySizeID(PK)" style="text;html=1;align=center;verticalAlign=middle;resizable=0;points=[];autosize=1;strokeColor=none;fillColor=none;" parent="7uYNugSpsT-0Em7vb6zb-61" vertex="1">
          <mxGeometry y="36" width="130" height="30" as="geometry" />
        </mxCell>
        <mxCell id="7uYNugSpsT-0Em7vb6zb-63" value="MaturitySize" style="text;html=1;align=center;verticalAlign=middle;resizable=0;points=[];autosize=1;strokeColor=none;fillColor=none;" parent="7uYNugSpsT-0Em7vb6zb-61" vertex="1">
          <mxGeometry x="2" y="66" width="90" height="30" as="geometry" />
        </mxCell>
        <mxCell id="7uYNugSpsT-0Em7vb6zb-64" value="FurLength_DIM" style="swimlane;whiteSpace=wrap;html=1;startSize=23;" parent="1" vertex="1">
          <mxGeometry x="20" y="870" width="200" height="110" as="geometry" />
        </mxCell>
        <mxCell id="7uYNugSpsT-0Em7vb6zb-65" value="FurLengthID(PK)" style="text;html=1;align=center;verticalAlign=middle;resizable=0;points=[];autosize=1;strokeColor=none;fillColor=none;" parent="7uYNugSpsT-0Em7vb6zb-64" vertex="1">
          <mxGeometry x="5" y="36" width="110" height="30" as="geometry" />
        </mxCell>
        <mxCell id="7uYNugSpsT-0Em7vb6zb-66" value="FurLength" style="text;html=1;align=center;verticalAlign=middle;resizable=0;points=[];autosize=1;strokeColor=none;fillColor=none;" parent="7uYNugSpsT-0Em7vb6zb-64" vertex="1">
          <mxGeometry x="2" y="66" width="80" height="30" as="geometry" />
        </mxCell>
        <mxCell id="7uYNugSpsT-0Em7vb6zb-67" value="Vaccinated_DIM" style="swimlane;whiteSpace=wrap;html=1;startSize=23;" parent="1" vertex="1">
          <mxGeometry x="590" y="390" width="200" height="110" as="geometry" />
        </mxCell>
        <mxCell id="7uYNugSpsT-0Em7vb6zb-68" value="VaccinatedID(PK)" style="text;html=1;align=center;verticalAlign=middle;resizable=0;points=[];autosize=1;strokeColor=none;fillColor=none;" parent="7uYNugSpsT-0Em7vb6zb-67" vertex="1">
          <mxGeometry x="1" y="36" width="120" height="30" as="geometry" />
        </mxCell>
        <mxCell id="7uYNugSpsT-0Em7vb6zb-69" value="Vaccinated" style="text;html=1;align=center;verticalAlign=middle;resizable=0;points=[];autosize=1;strokeColor=none;fillColor=none;" parent="7uYNugSpsT-0Em7vb6zb-67" vertex="1">
          <mxGeometry x="3" y="66" width="80" height="30" as="geometry" />
        </mxCell>
        <mxCell id="7uYNugSpsT-0Em7vb6zb-70" value="Dewormed_DIM" style="swimlane;whiteSpace=wrap;html=1;startSize=23;" parent="1" vertex="1">
          <mxGeometry x="589" y="510" width="200" height="110" as="geometry" />
        </mxCell>
        <mxCell id="7uYNugSpsT-0Em7vb6zb-71" value="DewormedID(PK)" style="text;html=1;align=center;verticalAlign=middle;resizable=0;points=[];autosize=1;strokeColor=none;fillColor=none;" parent="7uYNugSpsT-0Em7vb6zb-70" vertex="1">
          <mxGeometry x="1" y="36" width="120" height="30" as="geometry" />
        </mxCell>
        <mxCell id="7uYNugSpsT-0Em7vb6zb-72" value="Dewormed" style="text;html=1;align=center;verticalAlign=middle;resizable=0;points=[];autosize=1;strokeColor=none;fillColor=none;" parent="7uYNugSpsT-0Em7vb6zb-70" vertex="1">
          <mxGeometry x="3" y="66" width="80" height="30" as="geometry" />
        </mxCell>
        <mxCell id="7uYNugSpsT-0Em7vb6zb-73" value="Sterilized_DIM" style="swimlane;whiteSpace=wrap;html=1;startSize=23;" parent="1" vertex="1">
          <mxGeometry x="589" y="630" width="200" height="110" as="geometry" />
        </mxCell>
        <mxCell id="7uYNugSpsT-0Em7vb6zb-74" value="SterilizedID(PK)" style="text;html=1;align=center;verticalAlign=middle;resizable=0;points=[];autosize=1;strokeColor=none;fillColor=none;" parent="7uYNugSpsT-0Em7vb6zb-73" vertex="1">
          <mxGeometry x="4" y="36" width="110" height="30" as="geometry" />
        </mxCell>
        <mxCell id="7uYNugSpsT-0Em7vb6zb-75" value="Sterilized" style="text;html=1;align=center;verticalAlign=middle;resizable=0;points=[];autosize=1;strokeColor=none;fillColor=none;" parent="7uYNugSpsT-0Em7vb6zb-73" vertex="1">
          <mxGeometry x="7" y="66" width="70" height="30" as="geometry" />
        </mxCell>
        <mxCell id="7uYNugSpsT-0Em7vb6zb-76" value="Health_DIM" style="swimlane;whiteSpace=wrap;html=1;startSize=23;" parent="1" vertex="1">
          <mxGeometry x="590" y="750" width="200" height="110" as="geometry" />
        </mxCell>
        <mxCell id="7uYNugSpsT-0Em7vb6zb-77" value="HealthID(PK)" style="text;html=1;align=center;verticalAlign=middle;resizable=0;points=[];autosize=1;strokeColor=none;fillColor=none;" parent="7uYNugSpsT-0Em7vb6zb-76" vertex="1">
          <mxGeometry x="13" y="36" width="90" height="30" as="geometry" />
        </mxCell>
        <mxCell id="7uYNugSpsT-0Em7vb6zb-78" value="Health" style="text;html=1;align=center;verticalAlign=middle;resizable=0;points=[];autosize=1;strokeColor=none;fillColor=none;" parent="7uYNugSpsT-0Em7vb6zb-76" vertex="1">
          <mxGeometry x="9" y="66" width="60" height="30" as="geometry" />
        </mxCell>
        <mxCell id="7uYNugSpsT-0Em7vb6zb-79" value="State_DIM" style="swimlane;whiteSpace=wrap;html=1;startSize=23;" parent="1" vertex="1">
          <mxGeometry x="589" y="870" width="200" height="110" as="geometry" />
        </mxCell>
        <mxCell id="7uYNugSpsT-0Em7vb6zb-80" value="StateID(PK)" style="text;html=1;align=center;verticalAlign=middle;resizable=0;points=[];autosize=1;strokeColor=none;fillColor=none;" parent="7uYNugSpsT-0Em7vb6zb-79" vertex="1">
          <mxGeometry x="9" y="36" width="90" height="30" as="geometry" />
        </mxCell>
        <mxCell id="7uYNugSpsT-0Em7vb6zb-81" value="State" style="text;html=1;align=center;verticalAlign=middle;resizable=0;points=[];autosize=1;strokeColor=none;fillColor=none;" parent="7uYNugSpsT-0Em7vb6zb-79" vertex="1">
          <mxGeometry x="11" y="66" width="50" height="30" as="geometry" />
        </mxCell>
        <mxCell id="7uYNugSpsT-0Em7vb6zb-83" value="Gender_DIM" style="swimlane;whiteSpace=wrap;html=1;startSize=23;" parent="1" vertex="1">
          <mxGeometry x="300" y="980" width="200" height="110" as="geometry" />
        </mxCell>
        <mxCell id="7uYNugSpsT-0Em7vb6zb-84" value="GenderID(PK)" style="text;html=1;align=center;verticalAlign=middle;resizable=0;points=[];autosize=1;strokeColor=none;fillColor=none;" parent="7uYNugSpsT-0Em7vb6zb-83" vertex="1">
          <mxGeometry x="4" y="36" width="100" height="30" as="geometry" />
        </mxCell>
        <mxCell id="7uYNugSpsT-0Em7vb6zb-85" value="Gender" style="text;html=1;align=center;verticalAlign=middle;resizable=0;points=[];autosize=1;strokeColor=none;fillColor=none;" parent="7uYNugSpsT-0Em7vb6zb-83" vertex="1">
          <mxGeometry x="6" y="66" width="60" height="30" as="geometry" />
        </mxCell>
        <mxCell id="7uYNugSpsT-0Em7vb6zb-88" value="" style="endArrow=none;html=1;rounded=0;exitX=1;exitY=0.5;exitDx=0;exitDy=0;" parent="1" source="gJ090KC5xR00DcdVzrJq-5" edge="1">
          <mxGeometry width="50" height="50" relative="1" as="geometry">
            <mxPoint x="330" y="720" as="sourcePoint" />
            <mxPoint x="310" y="530" as="targetPoint" />
          </mxGeometry>
        </mxCell>
        <mxCell id="7uYNugSpsT-0Em7vb6zb-89" value="" style="endArrow=none;html=1;rounded=0;exitX=1;exitY=0.5;exitDx=0;exitDy=0;entryX=-0.043;entryY=0.633;entryDx=0;entryDy=0;entryPerimeter=0;" parent="1" source="7uYNugSpsT-0Em7vb6zb-1" target="xx2WODDOaaM5Vq0Ma5h1-13" edge="1">
          <mxGeometry width="50" height="50" relative="1" as="geometry">
            <mxPoint x="230" y="455" as="sourcePoint" />
            <mxPoint x="308" y="566" as="targetPoint" />
          </mxGeometry>
        </mxCell>
        <mxCell id="7uYNugSpsT-0Em7vb6zb-90" value="" style="endArrow=none;html=1;rounded=0;exitX=1;exitY=0.5;exitDx=0;exitDy=0;" parent="1" source="7uYNugSpsT-0Em7vb6zb-47" edge="1">
          <mxGeometry width="50" height="50" relative="1" as="geometry">
            <mxPoint x="240" y="465" as="sourcePoint" />
            <mxPoint x="310" y="630" as="targetPoint" />
          </mxGeometry>
        </mxCell>
        <mxCell id="7uYNugSpsT-0Em7vb6zb-91" value="" style="endArrow=none;html=1;rounded=0;exitX=1;exitY=0.5;exitDx=0;exitDy=0;" parent="1" source="7uYNugSpsT-0Em7vb6zb-61" edge="1">
          <mxGeometry width="50" height="50" relative="1" as="geometry">
            <mxPoint x="250" y="475" as="sourcePoint" />
            <mxPoint x="310" y="710" as="targetPoint" />
          </mxGeometry>
        </mxCell>
        <mxCell id="7uYNugSpsT-0Em7vb6zb-92" value="" style="endArrow=none;html=1;rounded=0;exitX=1;exitY=0.5;exitDx=0;exitDy=0;entryX=0;entryY=0.75;entryDx=0;entryDy=0;" parent="1" source="7uYNugSpsT-0Em7vb6zb-64" target="gJ090KC5xR00DcdVzrJq-6" edge="1">
          <mxGeometry width="50" height="50" relative="1" as="geometry">
            <mxPoint x="260" y="485" as="sourcePoint" />
            <mxPoint x="338" y="596" as="targetPoint" />
          </mxGeometry>
        </mxCell>
        <mxCell id="7uYNugSpsT-0Em7vb6zb-93" value="" style="endArrow=none;html=1;rounded=0;exitX=-0.025;exitY=1;exitDx=0;exitDy=0;exitPerimeter=0;entryX=1;entryY=0.5;entryDx=0;entryDy=0;" parent="1" source="7uYNugSpsT-0Em7vb6zb-68" target="gJ090KC5xR00DcdVzrJq-6" edge="1">
          <mxGeometry width="50" height="50" relative="1" as="geometry">
            <mxPoint x="270" y="495" as="sourcePoint" />
            <mxPoint x="500" y="750" as="targetPoint" />
          </mxGeometry>
        </mxCell>
        <mxCell id="7uYNugSpsT-0Em7vb6zb-95" value="" style="endArrow=none;html=1;rounded=0;exitX=0;exitY=0.5;exitDx=0;exitDy=0;" parent="1" source="7uYNugSpsT-0Em7vb6zb-73" edge="1">
          <mxGeometry width="50" height="50" relative="1" as="geometry">
            <mxPoint x="280" y="505" as="sourcePoint" />
            <mxPoint x="510" y="700" as="targetPoint" />
          </mxGeometry>
        </mxCell>
        <mxCell id="7uYNugSpsT-0Em7vb6zb-96" value="" style="endArrow=none;html=1;rounded=0;exitX=0;exitY=0.5;exitDx=0;exitDy=0;entryX=1;entryY=0.75;entryDx=0;entryDy=0;" parent="1" source="7uYNugSpsT-0Em7vb6zb-76" target="gJ090KC5xR00DcdVzrJq-6" edge="1">
          <mxGeometry width="50" height="50" relative="1" as="geometry">
            <mxPoint x="290" y="515" as="sourcePoint" />
            <mxPoint x="368" y="626" as="targetPoint" />
          </mxGeometry>
        </mxCell>
        <mxCell id="7uYNugSpsT-0Em7vb6zb-97" value="" style="endArrow=none;html=1;rounded=0;exitX=0;exitY=0.5;exitDx=0;exitDy=0;" parent="1" source="7uYNugSpsT-0Em7vb6zb-79" edge="1">
          <mxGeometry width="50" height="50" relative="1" as="geometry">
            <mxPoint x="300" y="525" as="sourcePoint" />
            <mxPoint x="510" y="830" as="targetPoint" />
          </mxGeometry>
        </mxCell>
        <mxCell id="7uYNugSpsT-0Em7vb6zb-98" value="" style="endArrow=none;html=1;rounded=0;exitX=0.5;exitY=0;exitDx=0;exitDy=0;entryX=0.5;entryY=1;entryDx=0;entryDy=0;" parent="1" source="7uYNugSpsT-0Em7vb6zb-83" target="gJ090KC5xR00DcdVzrJq-6" edge="1">
          <mxGeometry width="50" height="50" relative="1" as="geometry">
            <mxPoint x="310" y="535" as="sourcePoint" />
            <mxPoint x="388" y="646" as="targetPoint" />
          </mxGeometry>
        </mxCell>
        <mxCell id="j-YqSfHIM9kDHphSfaWC-1" value="ERD" style="text;html=1;align=center;verticalAlign=middle;resizable=0;points=[];autosize=1;strokeColor=none;fillColor=none;" vertex="1" parent="1">
          <mxGeometry x="10" y="10" width="50" height="30" as="geometry" />
        </mxCell>
      </root>
    </mxGraphModel>
  </diagram>
</mxfile>
